<svg id="Capa_1" enable-background="new 0 0 512 512" height="200" viewBox="0 0 512 512" width="200" xmlns="http://www.w3.org/2000/svg"><g><g><path d="m151.738 75.672c-31.412 42.671-11.541 92.732-11.541 92.732l34.867-6.671h21.123v-32.537z" fill="#e5907b"/><path d="m370.496 70.195-39.155 61.399v30.138h20.185l34.867 6.671c-.001.001 21.623-54.473-15.897-98.208z" fill="#e5907b"/><path d="m162.064 208.109 13.001-12.014 9-17.181-9-17.181c-3.924-1.927-8.334-3.014-13.001-3.014-13.045 0-24.106 8.463-28.013 20.195-.001 20.354 14.968 29.195 28.013 29.195z" fill="#ebbaa1"/><path d="m134.05 178.914c-.977 2.934-1.514 6.07-1.514 9.332 0 16.308 13.22 29.527 29.527 29.527 4.666 0 9.077-1.087 13.001-3.014l9-9.815-9-8.85c-3.924 1.927-8.334 3.014-13.001 3.014-13.044.001-24.106-8.462-28.013-20.194z" fill="#e8a990"/><path d="m312.315 493.374-2.93-203.294h-92.181l-2.93 203.294 48.996 9z" fill="#ffdd91"/><path d="m217.204 290.08 42.08 56.524c1.999 2.686 6.022 2.686 8.021 0l42.08-56.524z" fill="#ebbaa1"/><path d="m214.274 493.374-10.711 9.313 7.217 9.313h105.029l7.221-9.293-10.715-9.333z" fill="#f9cd80"/><path d="m312.315 493.374c-5.438-30.114-15.309-89.801-15.309-126.267 0-50.325 12.379-77.027 12.379-77.027s34.165-20.855 60.742-19.395c3.143.173 5.302 3.248 4.499 6.292l-13.13 49.76c33.513 18.053 54.41 53.047 54.41 91.113v75.525l-54.41 9z" fill="#f95750"/><path d="m415.907 493.374v13.603c0 2.774-2.249 5.023-5.023 5.023h-51.581l-7.777-9-7.777 9h-27.94s-1.428-7.181-3.494-18.626z" fill="#e84642"/><path d="m364.526 208.109-13-12.014-9-17.181 9-17.181c3.923-1.927 8.334-3.014 13-3.014 13.045 0 24.106 8.463 28.013 20.195 0 20.354-14.968 29.195-28.013 29.195z" fill="#ebbaa1"/><path d="m392.539 178.914c.977 2.934 1.514 6.07 1.514 9.332 0 16.308-13.22 29.527-29.527 29.527-4.666 0-9.077-1.087-13-3.014l-9-9.815 9-8.85c3.923 1.927 8.334 3.014 13 3.014 13.045.001 24.106-8.462 28.013-20.194z" fill="#e8a990"/><path d="m263.294 293.4c48.726 0 88.231-34.598 88.231-97.221v-34.447c-9.729-8.112-16.188-20.227-20.184-30.138-19.099 8.95-43.183 13.565-68.046 13.565-20.817 0-45.706-4.313-67.108-15.963-3.891 10.288-10.593 23.757-21.123 32.537v34.438c0 61.515 39.502 97.229 88.23 97.229z" fill="#fdd4bb"/><path d="m263.295 145.159c-45.943 0-111.719-21.007-116.079-95.533-.215-3.672 3.425-6.346 6.848-4.999 6.614 2.604 16.484 6.074 23.431 6.663 0 0-4.859-27.229 5.922-45.659 1.428-2.442 4.626-3.144 7.013-1.625 4.933 3.14 15.198 7.711 33.78 8.427 20.741.799 50.538 4.056 60.124 20.646 0 0-2.362-17.713 7.18-30.949 1.805-2.503 5.382-2.87 7.601-.726 5.009 4.841 14.633 13.6 26.143 21.351 18.066 12.167 58.874 34.168 42.399 74.474-12.811 31.339-57.194 47.93-104.362 47.93z" fill="#af665a"/><path d="m214.274 493.374c5.438-30.114 15.309-89.801 15.309-126.267 0-50.325-12.379-77.027-12.379-77.027s-34.165-20.855-60.742-19.395c-3.143.173-5.302 3.248-4.499 6.292l13.13 49.76c-33.513 18.053-54.41 53.047-54.41 91.113v75.525l54.41 9z" fill="#f95750"/><path d="m110.682 493.374v13.603c0 2.774 2.249 5.023 5.023 5.023h51.582l7.777-9 7.777 9h27.939s1.427-7.181 3.494-18.626z" fill="#e84642"/><path d="m263.295 284.4c-48.729 0-88.231-39.502-88.231-88.231v18.665c0 48.728 39.502 88.23 88.23 88.23 48.728 0 88.231-39.502 88.231-88.23v-18.664c.001 48.728-39.502 88.23-88.23 88.23z" fill="#f7c4a8"/></g><g><path d="m302.433 204.945c4.304 0 7.792-3.489 7.792-7.792v-14.319c0-4.304-3.488-7.792-7.792-7.792s-7.793 3.489-7.793 7.792v14.319c0 4.303 3.488 7.792 7.793 7.792z" fill="#5a5b77"/><path d="m224.106 175.042c-4.303 0-7.792 3.489-7.792 7.792v14.319c0 4.304 3.489 7.792 7.792 7.792 4.304 0 7.793-3.489 7.793-7.792v-14.319c0-4.303-3.489-7.792-7.793-7.792z" fill="#5a5b77"/><path d="m293.357 243.36c1.638-3.979-.26-8.534-4.239-10.172-3.981-1.638-8.534.259-10.173 4.239-.029.073-3.363 7.33-15.675 7.33-12.313 0-15.646-7.257-15.675-7.33-1.639-3.979-6.191-5.877-10.173-4.239-3.979 1.639-5.877 6.193-4.239 10.172.286.693 7.255 16.981 30.087 16.981s29.8-16.288 30.087-16.981z" fill="#f95750"/><g fill="#8dd7f7"><path d="m442.089 230.388c-4.668-1.09-9.496 2.836-9.376 7.629v44.627c-5.793 1.252-10.148 6.41-10.148 12.572 0 7.094 5.772 12.866 12.867 12.866 6.825 0 12.41-5.346 12.826-12.068.027-.263.04-.529.04-.798v-45.889c5.486 3.092 11.327 8.457 11.327 17.29 0 4.304 3.488 7.792 7.792 7.792s7.792-3.489 7.792-7.792c.001-23.218-21.664-33.851-33.12-36.229z"/><path d="m102.759 283.064c.125-4.88-4.874-8.83-9.589-7.582l-40.24 9.538c-3.514.833-5.996 3.971-5.996 7.582v34.44c-5.79 1.253-10.144 6.409-10.144 12.569 0 7.093 5.771 12.865 12.865 12.865 6.824 0 12.409-5.345 12.824-12.066.027-.263.04-41.646.04-41.646l24.655-5.844v26.514c-5.79 1.253-10.144 6.409-10.144 12.569 0 7.094 5.771 12.865 12.865 12.865 6.824 0 12.409-5.345 12.824-12.067.026-.263.04-49.737.04-49.737z"/></g></g><path d="m182.841 493.374v-47.184c0-4.295-3.482-7.777-7.777-7.777s-7.777 3.482-7.777 7.777v47.185l7.777 9.332z" fill="#cb3541"/><path d="m167.287 493.374h15.554v18.626h-15.554z" fill="#b53939"/><path d="m359.303 493.374v-47.184c0-4.295-3.482-7.777-7.777-7.777s-7.777 3.482-7.777 7.777v47.185l7.777 9.332z" fill="#cb3541"/><path d="m343.749 493.374h15.554v18.626h-15.554z" fill="#b53939"/></g></svg>